<svg id="visual" viewBox="0 0 900 600" width="900" height="600" xmlns="http://www.w3.org/2000/svg" xmlns:xlink="http://www.w3.org/1999/xlink" version="1.1"><path d="M0 490L25 486.3C50 482.7 100 475.3 150 480.7C200 486 250 504 300 507.7C350 511.3 400 500.7 450 482.5C500 464.3 550 438.7 600 426.2C650 413.7 700 414.3 750 426C800 437.7 850 460.3 875 471.7L900 483L900 601L875 601C850 601 800 601 750 601C700 601 650 601 600 601C550 601 500 601 450 601C400 601 350 601 300 601C250 601 200 601 150 601C100 601 50 601 25 601L0 601Z" fill="#FFFFFF" stroke-linecap="round" stroke-linejoin="miter"></path></svg>